<svg xmlns="http://www.w3.org/2000/svg" width="16" height="16" viewBox="0 0 16 16">
    <g fill="none" fill-rule="evenodd">
        <path fill="#FFF" fill-opacity="0" d="M0 0H16V16H0z"/>
        <path fill="#377ef9" fill-rule="nonzero" d="M6.5 2.25c3.452 0 6.25 2.798 6.25 6.25s-2.798 6.25-6.25 6.25S.25 11.952.25 8.5 3.048 2.25 6.5 2.25zm5.901.116c2.066 1.31 3.349 3.617 3.349 6.149 0 2.509-1.26 4.8-3.297 6.115-.348.225-.812.125-1.037-.223-.225-.348-.125-.812.223-1.037 1.611-1.04 2.611-2.858 2.611-4.855 0-2.015-1.018-3.847-2.651-4.881-.35-.222-.454-.685-.233-1.035.222-.35.685-.454 1.035-.233zM6.5 3.75c-2.623 0-4.75 2.127-4.75 4.75s2.127 4.75 4.75 4.75 4.75-2.127 4.75-4.75S9.123 3.75 6.5 3.75zm0 1.5c.38 0 .693.282.743.648L7.25 6v1.75H9c.414 0 .75.336.75.75 0 .38-.282.693-.648.743L9 9.25H7.25V11c0 .414-.336.75-.75.75-.38 0-.693-.282-.743-.648L5.75 11V9.25H4c-.414 0-.75-.336-.75-.75 0-.38.282-.693.648-.743L4 7.75h1.75V6c0-.414.336-.75.75-.75z"/>
    </g>
</svg>
