<svg xmlns="http://www.w3.org/2000/svg" width="16" height="16" viewBox="0 0 16 16">
    <g fill="none" fill-rule="evenodd">
        <path fill="#FFF" fill-opacity="0" d="M0 0H16V16H0z"/>
        <path fill="#eb5757" d="M11.25 1c.647 0 1.18.492 1.244 1.122l.006.128v1.734h2.25c.414 0 .75.337.75.75 0 .38-.282.694-.648.744l-.102.007-1.25-.001v9.227c0 .652-.485 1.201-1.12 1.267l-.13.007h-8c-.655 0-1.18-.508-1.244-1.145L3 14.711V5.484H1.75c-.414 0-.75-.335-.75-.75 0-.379.282-.693.648-.742l.102-.007L4 3.984V2.25c0-.647.492-1.18 1.122-1.244L5.25 1h6zM12 5.484H4.5v9H12v-9zm-5.248 1.57c.38 0 .694.282.743.648l.007.102v3.93c0 .415-.336.75-.75.75-.38 0-.693-.281-.743-.647l-.007-.102V7.804c0-.414.336-.75.75-.75zm2.945 0c.38 0 .693.282.743.648l.007.102v3.93c0 .415-.336.75-.75.75-.38 0-.694-.281-.743-.647l-.007-.102V7.804c0-.414.336-.75.75-.75zM10.999 2.5H5.5L5.5 3.984H11V2.5z"/>
    </g>
</svg>
