<svg xmlns="http://www.w3.org/2000/svg" width="16" height="16" viewBox="0 0 16 16">
    <g fill="none" fill-rule="evenodd">
        <path fill="#FFF" fill-opacity="0" d="M0 0H16V16H0z"/>
        <path fill="#377ef9" d="M13 13.25c.414 0 .75.336.75.75 0 .38-.282.693-.648.743L13 14.75H2.5c-.414 0-.75-.336-.75-.75 0-.38.282-.693.648-.743l.102-.007H13zM9.29.823c.487-.488 1.279-.488 1.767 0l2.37 2.37c.488.488.488 1.28 0 1.768L7.02 11.366c-.26.26-.622.393-.988.362l-2.186-.184c-.608-.051-1.09-.533-1.141-1.14l-.184-2.187c-.03-.366.102-.728.362-.988zm.883 1.237L4.026 8.207l.156 1.86 1.86.156 6.147-6.147-2.016-2.016z"/>
    </g>
</svg>
